<svg xmlns="http://www.w3.org/2000/svg" xmlns:xlink="http://www.w3.org/1999/xlink" viewBox="0 0 3696.63 1106.99"><defs><style>.cls-1{isolation:isolate;}.cls-2{fill:#004259;opacity:0.1;}.cls-3{fill:#6ec173;}.cls-3,.cls-4,.cls-5,.cls-6{opacity:0.8;}.cls-4{fill:#00bdf2;}.cls-5{fill:#007bc3;}.cls-6{fill:#00b493;}.cls-7,.cls-8{mix-blend-mode:overlay;opacity:0.4;}.cls-7{fill:url(#linear-gradient);}.cls-8{fill:url(#linear-gradient-2);}.cls-9{fill:#29353c;}.cls-10{fill:#495a63;}</style><linearGradient id="linear-gradient" x1="831.38" y1="70.13" x2="828.41" y2="863.07" gradientUnits="userSpaceOnUse"><stop offset="0" stop-color="#fff"/><stop offset="0.01" stop-color="#fff" stop-opacity="0.96"/><stop offset="0.05" stop-color="#fff" stop-opacity="0.78"/><stop offset="0.09" stop-color="#fff" stop-opacity="0.61"/><stop offset="0.14" stop-color="#fff" stop-opacity="0.47"/><stop offset="0.2" stop-color="#fff" stop-opacity="0.34"/><stop offset="0.25" stop-color="#fff" stop-opacity="0.23"/><stop offset="0.32" stop-color="#fff" stop-opacity="0.15"/><stop offset="0.4" stop-color="#fff" stop-opacity="0.08"/><stop offset="0.49" stop-color="#fff" stop-opacity="0.03"/><stop offset="0.63" stop-color="#fff" stop-opacity="0.01"/><stop offset="1" stop-color="#fff" stop-opacity="0"/></linearGradient><linearGradient id="linear-gradient-2" x1="342.79" y1="397.16" x2="334.62" y2="1161.07" xlink:href="#linear-gradient"/></defs><g class="cls-1"><g id="Layer_1" data-name="Layer 1"><path class="cls-2" d="M779.05,800.89A371.76,371.76,0,0,1,515.53,691.74L657,550.32c67.33,67.33,176.88,67.33,244.2,0s67.33-176.88,0-244.21a172.66,172.66,0,0,0-244.2,0L515.53,164.69a372.75,372.75,0,1,1,263.52,636.2Z" transform="translate(-19.74 -26.53)"/><path class="cls-2" d="M392.42,1133.52A372.75,372.75,0,1,1,656,497.32L514.53,638.74c-67.33-67.33-176.88-67.33-244.21,0a172.68,172.68,0,0,0,0,244.21c67.33,67.32,176.88,67.32,244.21,0L656,1024.37a371.8,371.8,0,0,1-263.53,109.15Z" transform="translate(-19.74 -26.53)"/><path class="cls-3" d="M779.05,771.89A371.76,371.76,0,0,1,515.53,662.74L657,521.32c67.33,67.33,176.88,67.33,244.2,0s67.33-176.88,0-244.21a172.66,172.66,0,0,0-244.2,0L515.53,135.69a372.68,372.68,0,1,1,527.05,527.05A371.8,371.8,0,0,1,779.05,771.89Z" transform="translate(-19.74 -26.53)"/><path class="cls-4" d="M392.42,1104.52A372.75,372.75,0,1,1,656,468.32L514.53,609.74c-67.33-67.33-176.88-67.33-244.21,0a172.68,172.68,0,0,0,0,244.21c67.33,67.32,176.88,67.32,244.21,0L656,995.37a371.8,371.8,0,0,1-263.53,109.15Z" transform="translate(-19.74 -26.53)"/><path class="cls-5" d="M392.42,1065.2A333.42,333.42,0,1,1,628.14,496.12L486.72,637.54a133.36,133.36,0,0,0-188.6,188.6c52,52,136.61,52,188.6,0L628.14,967.56a332.67,332.67,0,0,1-235.72,97.64Z" transform="translate(-19.74 -26.53)"/><path class="cls-6" d="M779.05,729.87A330,330,0,0,1,545.24,633L686.66,491.6a130.66,130.66,0,1,0,0-184.78L545.24,165.4A330.72,330.72,0,1,1,779.05,729.87Z" transform="translate(-19.74 -26.53)"/><path class="cls-7" d="M777.73,758.46A360.41,360.41,0,0,1,522.29,652.65L659.37,515.57c65.26,65.26,171.45,65.26,236.71,0s65.27-171.45,0-236.71a167.37,167.37,0,0,0-236.71,0L522.29,141.77a361.25,361.25,0,1,1,510.88,510.88A360.46,360.46,0,0,1,777.73,758.46Z" transform="translate(-19.74 -26.53)"/><path class="cls-8" d="M391.18,1096A364.25,364.25,0,1,1,648.69,474.33L510.5,612.52c-65.8-65.79-172.85-65.79-238.64,0a168.73,168.73,0,0,0,0,238.64C337.65,917,444.7,917,510.5,851.16l138.19,138.2A363.32,363.32,0,0,1,391.18,1096Z" transform="translate(-19.74 -26.53)"/><path class="cls-9" d="M1282.76,644v-1.24c0-94.76,72.47-172.81,174.06-172.81,62.55,0,101.58,21.06,132.55,55.75l-57.61,61.94c-21.06-22.3-42.12-36.55-75.56-36.55-47.08,0-80.53,41.5-80.53,90.44v1.23c0,50.8,32.83,91.68,84.24,91.68,31.59,0,53.27-13.63,76.19-35.31l55.12,55.75c-32.2,35.3-69.37,60.7-135.64,60.7C1355.85,815.54,1282.76,738.73,1282.76,644Z" transform="translate(-19.74 -26.53)"/><path class="cls-10" d="M1627.15,644v-1.24c0-95.38,76.81-172.81,180.25-172.81,102.82,0,179,76.19,179,171.58v1.23c0,95.39-76.8,172.82-180.24,172.82C1703.34,815.54,1627.15,739.35,1627.15,644Zm266.34,0v-1.24c0-48.93-35.3-91.67-87.33-91.67-53.89,0-86.1,41.5-86.1,90.44v1.23c0,48.94,35.31,91.68,87.34,91.68C1861.29,734.4,1893.49,692.9,1893.49,644Z" transform="translate(-19.74 -26.53)"/><path class="cls-10" d="M2054.53,476.11h94.15v47.07c21.68-27.87,49.55-53.27,97.25-53.27,71.23,0,112.73,47.08,112.73,123.26V808.11h-94.15V622.9c0-44.59-21.06-67.51-57-67.51s-58.84,22.92-58.84,67.51V808.11h-94.15Z" transform="translate(-19.74 -26.53)"/><path class="cls-10" d="M2424.31,644v-1.24c0-94.76,67.51-172.81,164.14-172.81,110.87,0,161.66,86.1,161.66,180.25,0,7.43-.62,16.1-1.24,24.77h-231c9.29,42.74,39,65,81.14,65,31.59,0,54.5-9.91,80.52-34.07l53.89,47.7c-31,38.4-75.57,61.94-135.65,61.94C2498,815.54,2424.31,745.55,2424.31,644Zm234.13-27.87c-5.57-42.12-30.35-70.61-70-70.61-39,0-64.42,27.87-71.85,70.61Z" transform="translate(-19.74 -26.53)"/><path class="cls-10" d="M2804,644v-1.24c0-94.76,72.46-172.81,174.05-172.81,62.56,0,101.58,21.06,132.55,55.75L3053,587.6c-21.06-22.3-42.12-36.55-75.56-36.55-47.08,0-80.52,41.5-80.52,90.44v1.23c0,50.8,32.82,91.68,84.23,91.68,31.59,0,53.27-13.63,76.19-35.31l55.13,55.75c-32.21,35.3-69.38,60.7-135.65,60.7C2877.08,815.54,2804,738.73,2804,644Z" transform="translate(-19.74 -26.53)"/><path class="cls-10" d="M3189.26,714V556.63h-39.64V476.11h39.64V391.25h94.15v84.86h78.05v80.52h-78.05V698.47c0,21.68,9.29,32.21,30.35,32.21a95.79,95.79,0,0,0,46.46-11.77v75.57c-19.82,11.77-42.74,19.2-74.33,19.2C3228.29,813.68,3189.26,790.76,3189.26,714Z" transform="translate(-19.74 -26.53)"/><path class="cls-10" d="M3411,712.72v-1.24c0-72.47,55.12-105.92,133.79-105.92,33.44,0,57.6,5.58,81.14,13.63v-5.58c0-39-24.16-60.7-71.23-60.7-35.93,0-61.32,6.81-91.67,18L3439.5,499c36.54-16.1,72.47-26.63,128.83-26.63,51.41,0,88.58,13.63,112.11,37.16,24.78,24.78,35.93,61.32,35.93,105.92V808.11h-91V772.18c-22.92,25.39-54.51,42.12-100.35,42.12C3462.42,814.3,3411,778.37,3411,712.72ZM3627.18,691V674.31c-16.11-7.43-37.17-12.38-60.09-12.38-40.26,0-65,16.1-65,45.83V709c0,25.4,21.06,40.26,51.41,40.26C3597.45,749.26,3627.18,725.1,3627.18,691Z" transform="translate(-19.74 -26.53)"/></g></g></svg>