<svg xmlns="http://www.w3.org/2000/svg" xmlns:xlink="http://www.w3.org/1999/xlink" viewBox="0 0 1131.99 1106.99"><defs><style>.cls-1{isolation:isolate;}.cls-2{fill:#004259;opacity:0.1;}.cls-3{fill:#6ec173;}.cls-3,.cls-4,.cls-5,.cls-6{opacity:0.8;}.cls-4{fill:#00bdf2;}.cls-5{fill:#007bc3;}.cls-6{fill:#00b493;}.cls-7,.cls-8{mix-blend-mode:overlay;opacity:0.4;}.cls-7{fill:url(#linear-gradient);}.cls-8{fill:url(#linear-gradient-2);}</style><linearGradient id="linear-gradient" x1="825.64" y1="70.1" x2="822.67" y2="863.04" gradientUnits="userSpaceOnUse"><stop offset="0" stop-color="#fff"/><stop offset="0.01" stop-color="#fff" stop-opacity="0.96"/><stop offset="0.05" stop-color="#fff" stop-opacity="0.78"/><stop offset="0.09" stop-color="#fff" stop-opacity="0.61"/><stop offset="0.14" stop-color="#fff" stop-opacity="0.47"/><stop offset="0.2" stop-color="#fff" stop-opacity="0.34"/><stop offset="0.25" stop-color="#fff" stop-opacity="0.23"/><stop offset="0.32" stop-color="#fff" stop-opacity="0.15"/><stop offset="0.4" stop-color="#fff" stop-opacity="0.08"/><stop offset="0.49" stop-color="#fff" stop-opacity="0.03"/><stop offset="0.63" stop-color="#fff" stop-opacity="0.01"/><stop offset="1" stop-color="#fff" stop-opacity="0"/></linearGradient><linearGradient id="linear-gradient-2" x1="337.05" y1="397.13" x2="328.88" y2="1161.04" xlink:href="#linear-gradient"/></defs><g class="cls-1"><g id="Layer_1" data-name="Layer 1"><path class="cls-2" d="M773.31,800.87A371.87,371.87,0,0,1,509.79,691.71L651.21,550.29c67.33,67.33,176.88,67.33,244.21,0s67.33-176.88,0-244.21a172.68,172.68,0,0,0-244.21,0L509.79,164.66a372.68,372.68,0,1,1,527.05,527.05A371.87,371.87,0,0,1,773.31,800.87Z" transform="translate(-14 -26.5)"/><path class="cls-2" d="M386.69,1133.5A372.75,372.75,0,1,1,650.21,497.29L508.79,638.71c-67.33-67.33-176.88-67.33-244.21,0a172.68,172.68,0,0,0,0,244.21c67.33,67.33,176.88,67.33,244.21,0l141.42,141.42A371.82,371.82,0,0,1,386.69,1133.5Z" transform="translate(-14 -26.5)"/><path class="cls-3" d="M773.31,771.87A371.87,371.87,0,0,1,509.79,662.71L651.21,521.29c67.33,67.33,176.88,67.33,244.21,0s67.33-176.88,0-244.21a172.68,172.68,0,0,0-244.21,0L509.79,135.66a372.68,372.68,0,1,1,527.05,527.05A371.87,371.87,0,0,1,773.31,771.87Z" transform="translate(-14 -26.5)"/><path class="cls-4" d="M386.69,1104.5A372.75,372.75,0,1,1,650.21,468.29L508.79,609.71c-67.33-67.33-176.88-67.33-244.21,0a172.68,172.68,0,0,0,0,244.21c67.33,67.33,176.88,67.33,244.21,0L650.21,995.34A371.82,371.82,0,0,1,386.69,1104.5Z" transform="translate(-14 -26.5)"/><path class="cls-5" d="M386.69,1065.17A333.42,333.42,0,1,1,622.41,496.1L481,637.52A133.35,133.35,0,1,0,292.39,826.11c52,52,136.6,52,188.59,0L622.41,967.53a332.55,332.55,0,0,1-235.72,97.64Z" transform="translate(-14 -26.5)"/><path class="cls-6" d="M773.31,729.85A330,330,0,0,1,539.5,633L680.92,491.58a130.67,130.67,0,1,0,0-184.79L539.5,165.37A330.72,330.72,0,1,1,773.31,729.85Z" transform="translate(-14 -26.5)"/><path class="cls-7" d="M772,758.43A360.41,360.41,0,0,1,516.55,652.62L653.63,515.54c65.26,65.27,171.45,65.27,236.72,0s65.26-171.45,0-236.71a167.38,167.38,0,0,0-236.72,0L516.55,141.75A361.31,361.31,0,1,1,772,758.43Z" transform="translate(-14 -26.5)"/><path class="cls-8" d="M385.44,1096A364.25,364.25,0,1,1,643,474.3L504.76,612.5c-65.79-65.8-172.84-65.8-238.64,0a168.74,168.74,0,0,0,0,238.63c65.8,65.8,172.85,65.8,238.64,0L643,989.33A363.43,363.43,0,0,1,385.44,1096Z" transform="translate(-14 -26.5)"/></g></g></svg>